<svg width="78" height="25" viewBox="0 0 78 25" fill="none" xmlns="http://www.w3.org/2000/svg">
<path d="M0.22876 0L6.49374 0.00212684C8.96442 0.00296629 10.1998 0.00338602 11.3608 0.285266C12.3902 0.535166 13.3733 0.947022 14.2734 1.50543C15.2886 2.1353 16.1554 3.01552 17.8889 4.77596L30.3418 17.4223C34.3263 21.4688 36.3187 23.4921 38.6229 24.2486C40.6493 24.914 42.8354 24.914 44.8619 24.2486C47.1661 23.4921 49.1584 21.4688 53.1429 17.4224L65.5975 4.77428C67.3304 3.01444 68.1969 2.13452 69.2118 1.50478C70.1116 0.94648 71.0943 0.534634 72.1233 0.284632C73.2839 0.00263909 74.5188 0.00190772 76.9886 0.000445014L77.7409 0H0.22876Z" fill="#8E7DFF"/>
</svg>
