<svg width="46" height="52" viewBox="0 0 46 52" fill="none" xmlns="http://www.w3.org/2000/svg">
<path d="M15.9242 24.8994C16.3267 26.3829 15.4337 27.9089 13.9267 28.3099L13.5639 28.4054C12.0569 28.802 10.5103 27.9207 10.1064 26.4357L4.65128 6.3721C3.95948 3.96182 4.43537 1.69695 6.53133 1.08446L7.19082 0.933178C8.69632 0.535136 9.5776 1.55594 9.98004 3.03942L15.9242 24.8994ZM26.1162 26.2242C25.8341 27.8032 24.3051 28.8592 22.7012 28.5802L22.5734 28.5581C20.971 28.2805 19.9002 26.7721 20.1837 25.1932L24.1289 3.14664C24.4109 1.56769 25.1761 0.48226 26.7786 0.759861L27.1326 0.867082C31.2011 1.83208 29.5135 7.23722 30.0599 4.17773L26.1162 26.2242Z" fill="#E0AA94"/>
<path d="M10.4706 27.0864C10.851 28.5067 10.0094 29.9667 8.58911 30.3486L8.05741 30.491C6.63709 30.8715 5.17711 30.0298 4.79669 28.6095L0.0906967 11.0516C-0.288251 9.63132 0.554835 8.16987 1.97515 7.78945L2.50538 7.64698C3.9257 7.2651 5.38568 8.10818 5.76756 9.5285L10.4706 27.0864ZM17.1595 23.6788C17.5546 25.1476 16.6821 26.6575 15.2133 27.0511L14.8579 27.1466C13.3891 27.5403 11.8792 26.6678 11.4856 25.199L5.68825 3.56228C5.29315 2.09349 6.16561 0.583579 7.63439 0.189944L7.98984 0.0944727C9.45863 -0.299163 10.9685 0.573298 11.3636 2.04209L17.1595 23.6788ZM24.4946 25.4472C24.2302 26.9454 22.8026 27.9456 21.3044 27.6813L20.9431 27.6166C19.4449 27.3522 18.4447 25.9246 18.7091 24.4264L22.5984 2.36963C22.8628 0.871462 24.2905 -0.128783 25.7886 0.135599L26.1499 0.198757C27.6481 0.463139 28.6484 1.89227 28.3854 3.39043L24.4946 25.4472ZM31.6946 26.9028C31.4479 28.3011 30.1171 29.2352 28.7174 28.9885L27.9947 28.8607C26.5965 28.6139 25.6638 27.2817 25.9091 25.8835L29.6089 4.91063C29.8557 3.51381 31.1879 2.57819 32.5847 2.82495L33.3088 2.95273C34.7071 3.19949 35.6398 4.53315 35.393 5.92997L31.6946 26.9028ZM36.6018 39.3082C35.8351 40.6345 34.1387 41.0898 32.8109 40.3231L32.5304 40.1601C31.2026 39.3934 30.7472 37.6969 31.5154 36.3706L39.7539 22.0969C40.5206 20.7706 42.2185 20.3138 43.5463 21.0805L43.8268 21.2436C45.1546 22.0088 45.6084 23.7082 44.8417 25.0345L36.6018 39.3082Z" fill="#F7DECE"/>
<path d="M3.19573 22.6345C3.78324 24.8274 2.92694 30.2502 2.92694 34.3745C2.92694 38.4989 6.04812 52 20.5524 52C35.0567 52 35.9747 39.906 38.1779 36.3339C40.381 32.7618 36.9544 26.9704 35.2403 29.908C33.5262 32.8455 30.9309 31.6162 31.8136 26.4196C32.6963 21.223 27.231 18.3941 26.4731 22.683C25.8298 26.3212 24.361 25.2578 25.2187 21.342C26.075 17.4247 20.0574 16.3187 19.0836 21.646C18.3683 25.5633 16.9509 22.9562 16.3649 20.7104C15.7788 18.4646 9.77884 18.2663 10.5617 21.7518C11.6795 26.7266 10.5544 27.7253 8.92547 21.6475C7.89144 17.7919 3.19573 22.6345 3.19573 22.6345Z" fill="#F7DECE"/>
<path d="M32.9769 31.459C33.0107 31.4561 33.0444 31.4472 33.0782 31.4428C32.5069 31.343 32.031 30.798 31.796 29.8184C28.9803 30.1826 25.0601 30.8656 22.0212 33.837C18.267 37.5075 17.6266 41.4747 17.6574 44.1288C17.6824 46.2688 18.8501 47.2822 19.1923 44.1111C19.6344 40.0059 22.641 32.3021 32.9769 31.459Z" fill="#E0AA94"/>
</svg>
