<svg width="67" height="25" viewBox="0 0 67 25" fill="none" xmlns="http://www.w3.org/2000/svg">
<path d="M67 25C65.4561 24.9872 64.5327 24.6852 63.6287 24.4651C62.6009 24.2147 61.6194 23.8029 60.7207 23.245C59.707 22.6156 58.8415 21.7367 57.1105 19.9788L44.6506 7.32529C40.6661 3.27888 38.6737 1.25555 36.3695 0.499008C34.343 -0.166336 32.157 -0.166336 30.1305 0.499008C27.8263 1.25556 25.834 3.2788 21.8494 7.32528L9.1566 20.2153C7.50916 21.8883 6.6854 22.7249 5.72413 23.336C4.87171 23.8779 3.94211 24.2875 2.96697 24.5509C2.65852 24.6343 0.84429 24.95 0.5 25H67Z" fill="white"/>
</svg>
