<svg width="24" height="24" viewBox="0 0 24 24" fill="none" xmlns="http://www.w3.org/2000/svg">
<path d="M19.1667 11.0833C19.1667 14.9954 15.9954 18.1667 12.0833 18.1667C8.17125 18.1667 5 14.9954 5 11.0833C5 7.17125 8.17125 4 12.0833 4C15.9954 4 19.1667 7.17125 19.1667 11.0833Z" fill="#FFCB4C"/>
<path d="M12.005 14.4396C12.9397 14.4396 13.6975 14.0796 13.6975 13.6355C13.6975 13.1913 12.9397 12.8313 12.005 12.8313C11.0703 12.8313 10.3125 13.1913 10.3125 13.6355C10.3125 14.0796 11.0703 14.4396 12.005 14.4396Z" fill="#65471B"/>
<path d="M15.1458 14.8254L15.1321 14.8171C14.7825 14.6025 14.3208 14.7129 14.1062 15.0625L14.0433 15.1646C13.8175 14.9304 13.5225 14.7587 13.1817 14.6891L12.5987 14.57L13.1287 11.9766C13.2108 11.5746 12.9492 11.1787 12.5475 11.0966L12.5317 11.0933C12.1296 11.0112 11.7337 11.2729 11.6517 11.6746L10.9546 15.0841L10.9483 15.115L10.8179 15.7529L10.8175 15.7571L10.3475 18.0625C10.2558 18.5116 10.46 19 11.1371 19H12.5C13.6683 19 14.0146 18.5791 14.2492 17.7112L15.3912 15.8516C15.6054 15.5021 15.4954 15.0404 15.1458 14.8254Z" fill="#F19020"/>
<path d="M13.9204 16.8095C13.9121 16.8095 13.9029 16.8087 13.8937 16.807C13.8171 16.7929 13.7667 16.7187 13.7817 16.6416C13.8062 16.5116 13.7808 16.397 13.7037 16.292C13.4579 15.9554 12.75 15.8025 12.4979 15.772C12.4204 15.7629 12.365 15.692 12.3746 15.615C12.3837 15.5375 12.4512 15.4812 12.5317 15.4916C12.5737 15.4962 13.5625 15.6208 13.9317 16.1254C14.0558 16.295 14.0987 16.487 14.0592 16.6954C14.0462 16.7625 13.9871 16.8095 13.9204 16.8095ZM12.5625 18.7804C12.4571 18.7804 12.3417 18.7675 12.2154 18.7379C11.9612 18.6779 11.7821 18.53 11.7237 18.3316C11.6746 18.1645 11.7196 17.9879 11.8442 17.8587C12.0058 17.6912 12.2621 17.6362 12.5504 17.7095C12.6258 17.7287 12.6717 17.8058 12.6525 17.8816C12.6333 17.9566 12.5571 18.0029 12.4804 17.9837C12.295 17.9362 12.1367 17.9629 12.0479 18.055C11.9946 18.11 11.975 18.1837 11.995 18.252C12.0237 18.3504 12.1279 18.4275 12.2804 18.4629C12.7721 18.5783 13.0442 18.3854 13.1862 18.2025C13.3979 17.9304 13.4229 17.5616 13.3475 17.417C13.1717 17.0787 12.4937 17.0037 12.2475 17.0033C12.1696 17.0033 12.1062 16.94 12.1062 16.862C12.1062 16.7841 12.1696 16.7208 12.2475 16.7208C12.2904 16.7208 13.3067 16.727 13.5983 17.287C13.7254 17.5308 13.6892 18.0166 13.4092 18.3762C13.2808 18.5404 13.0162 18.7804 12.5625 18.7804ZM10.5092 9.50912C10.5092 10.0887 10.1567 10.5587 9.72208 10.5587C9.2875 10.5587 8.935 10.0891 8.935 9.50912C8.935 8.92954 9.28708 8.45954 9.72208 8.45954C10.1567 8.45996 10.5092 8.92954 10.5092 9.50912ZM17.0358 8.27954C17.1283 8.27954 17.2212 8.25079 17.3012 8.19079C17.4971 8.04412 17.5362 7.76662 17.3896 7.57121C15.9454 5.64537 14.0179 5.62329 13.9367 5.62329C13.6921 5.62329 13.4942 5.82162 13.4942 6.06621C13.4942 6.30996 13.6912 6.50787 13.935 6.50871C14.0042 6.50954 15.515 6.54662 16.6817 8.10246C16.7683 8.21829 16.9012 8.27954 17.0358 8.27954ZM13.6575 9.50912C13.6575 10.0887 14.01 10.5587 14.4446 10.5587C14.8792 10.5587 15.2317 10.0891 15.2317 9.50912C15.2317 8.92954 14.8796 8.45954 14.4446 8.45954C14.0096 8.45996 13.6575 8.92954 13.6575 9.50912ZM7.13083 8.27954C7.03833 8.27954 6.94541 8.25079 6.86541 8.19079C6.67 8.04412 6.63041 7.76662 6.77708 7.57121C8.22125 5.64537 10.1487 5.62329 10.23 5.62329C10.4746 5.62329 10.6725 5.82162 10.6725 6.06621C10.6725 6.30996 10.4754 6.50787 10.2317 6.50871C10.1625 6.50954 8.65166 6.54662 7.485 8.10246C7.39833 8.21829 7.26541 8.27954 7.13083 8.27954Z" fill="#65471B"/>
</svg>
