<svg width="24" height="24" viewBox="0 0 24 24" fill="none" xmlns="http://www.w3.org/2000/svg">
<path d="M20.6154 16.1538C20.6154 17.1734 19.7888 18 18.7692 18H5.84615C4.82662 18 4 17.1734 4 16.1538V7.84615C4 6.82662 4.82662 6 5.84615 6H18.7692C19.7888 6 20.6154 6.82662 20.6154 7.84615V16.1538Z" fill="#CCD6DD"/>
<path d="M9.51538 11.832L4.294 17.0534C4.28154 17.0663 4.27692 17.0825 4.26631 17.0954C4.42323 17.3585 4.642 17.5768 4.90508 17.7342C4.91846 17.7235 4.93415 17.7189 4.94662 17.7065L10.1685 12.4846C10.3485 12.3042 10.3485 12.0125 10.1685 11.832C9.98754 11.6515 9.69585 11.6515 9.51538 11.832ZM20.3491 17.0954C20.3394 17.0825 20.3338 17.0663 20.3214 17.0538L15.1005 11.832C14.9195 11.6515 14.6278 11.6515 14.4474 11.832C14.2669 12.0129 14.2669 12.3046 14.4474 12.4846L19.6688 17.7065C19.6808 17.7185 19.6974 17.7235 19.7103 17.7342C19.9738 17.5772 20.1922 17.3585 20.3491 17.0954Z" fill="#99AAB5"/>
<path d="M18.7692 6H5.84615C4.82662 6 4 6.82662 4 7.84615V8.32154L10.7052 15.012C11.5794 15.8857 13.0074 15.8857 13.8825 15.012L20.6154 8.31185V7.84615C20.6154 6.82662 19.7888 6 18.7692 6Z" fill="#99AAB5"/>
<path d="M18.7692 6H5.84615C5.11323 6 4.48508 6.43108 4.18692 7.05L11.002 13.8655C11.7229 14.5865 12.8925 14.5865 13.6129 13.8655L20.4285 7.05C20.1303 6.43108 19.5026 6 18.7692 6Z" fill="#E1E8ED"/>
</svg>
