<svg width="24" height="24" viewBox="0 0 24 24" fill="none" xmlns="http://www.w3.org/2000/svg">
<path d="M20.8091 11.5723C19.5885 9.79435 17.065 12.411 12.4595 12.9428C10.7543 13.1395 9.21791 14.5634 7.23711 14.4277C6.42493 14.3719 5.29082 12.0352 4.44177 12.4077C4.00495 12.5996 3.80451 13.2402 4.25362 13.7214L9.24012 19.6714C9.24012 19.6714 9.49352 19.9636 10.3473 19.7612C10.5577 19.8232 13.7203 18.5557 15.5489 16.0185C15.9867 15.411 16.5086 14.9052 17.0489 14.4826C18.8033 13.1853 20.7103 12.7334 20.7103 12.7334C20.9543 12.532 21.0115 12.3179 20.9982 12.1321C21.0143 11.822 20.8091 11.5723 20.8091 11.5723Z" fill="#5C913B"/>
<path d="M9.40369 8.73302C7.6153 11.2149 4.48337 12.3906 4.48337 12.3906C3.89906 12.8856 4.39261 13.469 4.39261 13.469L9.32711 19.3116C9.32711 19.3116 9.57388 19.6033 10.405 19.401C10.405 19.401 13.5369 18.2276 15.3248 15.7457C17.168 13.1882 20.4919 12.3807 20.4919 12.3807C21.0758 11.8858 20.5827 11.3014 20.5827 11.3014L15.6482 5.45974C15.6482 5.45974 15.4014 5.16758 14.5703 5.36897C14.5703 5.36897 11.2469 6.17453 9.40369 8.73302Z" fill="#A7D28B"/>
<path d="M14.3789 13.0946C15.8148 13.0946 16.979 11.9305 16.979 10.4945C16.979 9.05851 15.8148 7.89441 14.3789 7.89441C12.9429 7.89441 11.7788 9.05851 11.7788 10.4945C11.7788 11.9305 12.9429 13.0946 14.3789 13.0946Z" fill="#77B255"/>
<path d="M10.0641 18.9703C9.64763 18.9703 9.49494 18.8152 9.47414 18.7916L5.02608 13.5995C5.01757 13.5895 4.79208 13.3314 4.81949 13.0033C4.83604 12.8043 4.9391 12.627 5.12536 12.4762L5.15514 12.4583C5.18398 12.4469 8.06867 11.2613 9.68545 9.11831L9.78 9.18922L9.68545 9.11831C11.3958 6.85103 14.3462 5.87812 14.3755 5.86867C15.2005 5.67673 15.4704 5.95093 15.4993 5.98307L19.8887 11.2041C19.8967 11.2126 20.1218 11.4716 20.0943 11.8002C20.0778 11.9987 19.9747 12.176 19.7885 12.3268L19.7417 12.35C19.7128 12.3571 16.8442 13.07 15.1825 15.272C13.5284 17.4656 10.6409 18.8847 10.612 18.8984C10.3927 18.9504 10.2121 18.9703 10.0641 18.9703ZM9.65236 18.6361C9.65283 18.6361 9.86604 18.8327 10.534 18.6777C10.5378 18.6725 13.3747 17.2774 14.9948 15.1302C16.6197 12.9769 19.3559 12.2077 19.6594 12.1278C19.7809 12.0233 19.848 11.9075 19.8589 11.7832C19.8788 11.5563 19.7114 11.361 19.71 11.3591L15.3206 6.13766C15.3196 6.13766 15.1078 5.94147 14.4394 6.09653C14.42 6.10315 11.5391 7.05431 9.87455 9.26061C8.28329 11.3695 5.50687 12.5675 5.26151 12.6705C5.13482 12.7769 5.06579 12.8955 5.05492 13.0227C5.03601 13.2477 5.20242 13.442 5.20384 13.4439L9.65236 18.6361Z" fill="#5C913B"/>
<path d="M14.0366 14.3549L14.0338 17.163L14.2687 17.4419C14.7268 17.024 15.1669 16.5541 15.5475 16.0256C15.9422 15.4782 16.4008 15.0097 16.8844 14.614L16.6561 14.3422L14.0366 14.3549Z" fill="#FFAC33"/>
<path d="M16.6471 14.3323L10.735 7.32953C10.2546 7.72474 9.79324 8.18567 9.40087 8.73074C9.01747 9.26305 8.5712 9.73154 8.10791 10.1447L8.79906 10.963L8.79859 10.9635L14.0342 17.1631C14.4975 16.7494 14.9386 16.2762 15.3225 15.7434C15.7148 15.1988 16.1758 14.7384 16.6556 14.3432L16.6466 14.3323H16.6471Z" fill="#FFE8B6"/>
<path d="M10.8233 14.5388C10.0873 13.6671 8.52912 15.0815 8.08474 14.5554C7.86964 14.3005 8.00815 13.9701 8.29085 13.7318C8.76596 13.33 9.1087 13.564 9.3238 13.382C9.4765 13.2534 9.46846 13.096 9.37769 12.9877C9.16685 12.7386 8.62792 12.8686 8.20907 13.1106L8.00532 12.8695C7.87815 12.7192 7.65312 12.6998 7.50279 12.827C7.35246 12.9546 7.33355 13.1787 7.46071 13.3291L7.67156 13.5791C7.35151 14.0037 7.24278 14.5672 7.62145 15.0149C8.32867 15.8516 9.90622 14.4608 10.4026 15.0489C10.5747 15.2531 10.5265 15.6427 10.1643 15.9481C9.62163 16.4071 9.12997 16.192 8.9092 16.3783C8.80142 16.4686 8.78203 16.6406 8.89691 16.7773C9.07986 16.9933 9.66276 16.947 10.223 16.5981C10.2239 16.599 10.2239 16.6 10.2239 16.6009L10.4541 16.8732C10.5813 17.0236 10.8068 17.042 10.9571 16.9158C11.1079 16.7881 11.1264 16.5631 10.9992 16.4128L10.769 16.1405C10.7666 16.1376 10.7628 16.1357 10.76 16.1329C11.1377 15.6706 11.2654 15.0612 10.8233 14.5388Z" fill="#5C913B"/>
<path d="M19.3219 19.2818C19.3261 19.278 19.3308 19.2752 19.3351 19.2719C19.3672 19.2398 19.3923 19.2029 19.4207 19.1674C19.4405 19.1428 19.4627 19.1192 19.4812 19.0941C19.4977 19.0705 19.5114 19.0464 19.5266 19.0223C20.1979 17.9884 19.7582 16.2355 18.4293 14.9061C17.1 13.5767 15.3466 13.1371 14.3131 13.8089C14.2886 13.8235 14.2644 13.8372 14.2408 13.8542C14.2158 13.8727 14.1916 13.8949 14.168 13.9143C14.133 13.9431 14.0961 13.9677 14.0635 14.0003C14.0593 14.0046 14.0564 14.0093 14.0531 14.0136C14.0479 14.0188 14.0418 14.0221 14.0361 14.0277L14.0389 14.0301C13.5662 14.5322 13.5605 15.3089 14.0361 15.7849C14.5126 16.2615 15.2889 16.2548 15.7914 15.7821L15.7966 15.7878C15.7867 15.7972 15.7758 15.8034 15.7664 15.8128C15.2657 16.3135 15.2539 17.1119 15.7385 17.5974C16.2235 18.082 17.0229 18.0702 17.5231 17.5695C17.5325 17.5601 17.5387 17.5492 17.5481 17.5393L17.5533 17.545C17.0806 18.047 17.0744 18.8237 17.551 19.3003C18.027 19.7758 18.8033 19.7702 19.3053 19.2974L19.3082 19.3003C19.3129 19.2936 19.3167 19.2875 19.3219 19.2818Z" fill="#E1E8ED"/>
<path d="M14.0371 15.8039C14.4654 16.2317 15.1343 16.2667 15.6302 15.9273C15.8377 15.5727 15.8973 15.2357 15.8973 15.1303C14.854 15.9084 13.9227 15.1345 13.7142 14.6717C13.6277 15.0716 13.7326 15.499 14.0371 15.8039ZM17.4876 17.6193C17.6285 17.4212 17.7377 17.2297 17.7888 17.1002C17.1246 17.7091 15.8548 17.2633 15.47 16.2975C15.3007 16.7466 15.3872 17.2637 15.7399 17.6164C16.2136 18.0901 16.9851 18.0863 17.4876 17.6193ZM19.3096 19.3188L19.3233 19.3017C19.328 19.298 19.3327 19.2951 19.3365 19.2913C19.3691 19.2592 19.3942 19.2223 19.4221 19.1873C19.4424 19.1623 19.4642 19.1391 19.4826 19.1136C19.4996 19.0904 19.5133 19.0659 19.5285 19.0417C19.5592 18.9945 19.5757 18.9387 19.6017 18.8886C18.4066 19.4232 17.5146 18.516 17.2645 18.0636C17.125 18.4971 17.2158 18.9826 17.5524 19.3197C18.028 19.7958 18.8042 19.7901 19.3067 19.3169L19.3096 19.3188Z" fill="#CCD6DD"/>
<path d="M10.5761 9.78442L10.5893 9.77402C10.6219 9.74187 10.647 9.705 10.6749 9.67001C10.6948 9.64543 10.7165 9.62227 10.7349 9.59674C10.752 9.5731 10.7657 9.54899 10.7808 9.52488C11.4521 8.49099 11.012 6.73758 9.68308 5.4087C8.35372 4.07934 6.60079 3.63921 5.56689 4.31051C5.54278 4.32564 5.5182 4.33935 5.49456 4.35637C5.46904 4.3748 5.44587 4.39655 5.42129 4.41641C5.38631 4.44477 5.34943 4.46935 5.31728 4.50197C5.31303 4.50623 5.31019 4.51143 5.30688 4.51521C5.30168 4.51994 5.29507 4.52419 5.28987 4.52939L5.29223 4.53176C4.81948 5.03381 4.81381 5.81053 5.28987 6.28658C5.76592 6.76264 6.54264 6.75696 7.04469 6.28422L7.04989 6.28942C7.03996 6.2984 7.02909 6.30502 7.01964 6.31447C6.519 6.81511 6.50718 7.61358 6.99222 8.09908C7.47725 8.58459 8.27619 8.5723 8.77683 8.07167C8.78628 8.06221 8.79243 8.05134 8.80188 8.04141L8.80708 8.04661C8.33434 8.54866 8.32819 9.32538 8.80472 9.80144C9.28077 10.2775 10.057 10.2718 10.5591 9.7986L10.5614 9.80144C10.5666 9.79624 10.5709 9.79009 10.5761 9.78442Z" fill="#E1E8ED"/>
<path d="M5.2894 6.28704C5.7177 6.71534 6.38664 6.75033 6.88255 6.40995C7.09008 6.05539 7.14917 5.7188 7.14917 5.61338C6.1063 6.39104 5.17452 5.61669 4.96651 5.15387C4.88 5.55428 4.98495 5.98212 5.2894 6.28704ZM8.7409 8.10143C8.88131 7.90335 8.99051 7.71283 9.0411 7.5833C8.37642 8.1922 7.10663 7.74593 6.72228 6.78011C6.55304 7.22922 6.63955 7.7464 6.99175 8.09907C7.46638 8.57323 8.23838 8.56897 8.7409 8.10143ZM10.5614 9.80189C10.5666 9.79669 10.5709 9.79055 10.5756 9.78487L10.5889 9.77447C10.6215 9.74233 10.6465 9.70545 10.6744 9.67047C10.6943 9.64589 10.716 9.62272 10.7345 9.59719C10.7515 9.57356 10.7652 9.54945 10.7803 9.52534C10.811 9.47806 10.8276 9.42181 10.8536 9.37169C9.6585 9.90637 8.76643 8.99964 8.51635 8.54723C8.37689 8.98073 8.46766 9.46624 8.80425 9.80284C9.2803 10.2789 10.0566 10.2732 10.5586 9.8L10.5614 9.80189Z" fill="#CCD6DD"/>
</svg>
