<svg width="24" height="24" viewBox="0 0 24 24" fill="none" xmlns="http://www.w3.org/2000/svg">
<path d="M17.697 14.5152H6.18182L5.0303 7.60608H18.8485L17.697 14.5152Z" fill="#CCD6DD"/>
<path d="M18.8393 17.3939H6.17261C5.54273 17.3939 5.0303 16.8809 5.0303 16.2516C5.0303 15.6223 5.55194 15.0909 6.18182 15.0909L6.18585 15.0903L6.19045 15.0909H17.697C17.9785 15.0909 18.2186 14.8871 18.2647 14.6096L19.4162 7.70048C19.4444 7.53351 19.3972 7.36309 19.2872 7.23355C19.1784 7.10458 19.0178 7.0303 18.8485 7.0303H5.5007L4.90191 3.48018C4.85642 3.20785 4.62324 3.02418 4.35955 3.01152C4.35033 3.00979 4.344 3 4.33479 3H1.57576C1.25794 3 1 3.25794 1 3.57576C1 3.89358 1.25794 4.15152 1.57576 4.15152H3.8477L5.51912 14.0638C4.57373 14.3476 3.87879 15.2153 3.87879 16.2516C3.87879 17.5166 4.90824 18.5455 6.17261 18.5455H18.8393C19.1577 18.5455 19.415 18.2881 19.415 17.9697C19.415 17.6513 19.1577 17.3939 18.8393 17.3939ZM17.5933 11.6364H15.6893L15.8465 10.4848H17.7845L17.5933 11.6364ZM14.5268 11.6364H12.5152V10.4848H14.684L14.5268 11.6364ZM11.3636 11.6364H9.35194L9.19476 10.4848H11.3636V11.6364ZM8.19006 11.6364H6.28603L6.0943 10.4848H8.03288L8.19006 11.6364ZM6.66948 13.9394L6.47776 12.7879H8.34724L8.50442 13.9394H6.66948ZM9.66688 13.9394L9.5097 12.7879H11.3636V13.9394H9.66688ZM12.5152 13.9394V12.7879H14.3691L14.2119 13.9394H12.5152ZM15.3749 13.9394L15.5321 12.7879H17.4016L17.2099 13.9394H15.3749ZM18.1685 8.18182L17.9768 9.33333H16.0042L16.1614 8.18182H18.1685ZM14.999 8.18182L14.8418 9.33333H12.5152V8.18182H14.999ZM11.3636 8.18182V9.33333H9.037L8.87982 8.18182H11.3636ZM7.71736 8.18182L7.87455 9.33333H5.90142L5.7097 8.18182H7.71736Z" fill="#66757F"/>
<path d="M7.9091 21.4243C8.86304 21.4243 9.63637 20.6509 9.63637 19.697C9.63637 18.7431 8.86304 17.9697 7.9091 17.9697C6.95515 17.9697 6.18182 18.7431 6.18182 19.697C6.18182 20.6509 6.95515 21.4243 7.9091 21.4243Z" fill="#E1E8ED"/>
<path d="M7.90908 22C6.63896 22 5.60605 20.9671 5.60605 19.697C5.60605 18.4268 6.63896 17.3939 7.90908 17.3939C9.1792 17.3939 10.2121 18.4268 10.2121 19.697C10.2121 20.9671 9.1792 22 7.90908 22ZM7.90908 18.5454C7.27402 18.5454 6.75756 19.0619 6.75756 19.697C6.75756 20.332 7.27402 20.8485 7.90908 20.8485C8.54414 20.8485 9.06059 20.332 9.06059 19.697C9.06059 19.0619 8.54414 18.5454 7.90908 18.5454Z" fill="#292F33"/>
<path d="M15.9697 21.4243C16.9237 21.4243 17.697 20.6509 17.697 19.697C17.697 18.7431 16.9237 17.9697 15.9697 17.9697C15.0158 17.9697 14.2424 18.7431 14.2424 19.697C14.2424 20.6509 15.0158 21.4243 15.9697 21.4243Z" fill="#E1E8ED"/>
<path d="M15.9697 22C14.6996 22 13.6667 20.9671 13.6667 19.697C13.6667 18.4268 14.6996 17.3939 15.9697 17.3939C17.2398 17.3939 18.2727 18.4268 18.2727 19.697C18.2727 20.9671 17.2398 22 15.9697 22ZM15.9697 18.5454C15.3346 18.5454 14.8182 19.0619 14.8182 19.697C14.8182 20.332 15.3346 20.8485 15.9697 20.8485C16.6047 20.8485 17.1212 20.332 17.1212 19.697C17.1212 19.0619 16.6047 18.5454 15.9697 18.5454Z" fill="#292F33"/>
</svg>
