<svg width="24" height="24" viewBox="0 0 24 24" fill="none" xmlns="http://www.w3.org/2000/svg">
<path d="M20.6111 12C21.3782 12 22 11.1294 22 10.0555C22 8.98164 21.3782 8.11108 20.6111 8.11108C19.8441 8.11108 19.2222 8.98164 19.2222 10.0555C19.2222 11.1294 19.8441 12 20.6111 12Z" fill="#F4900C"/>
<path d="M3.38889 12C4.15595 12 4.77778 11.1294 4.77778 10.0555C4.77778 8.98164 4.15595 8.11108 3.38889 8.11108C2.62183 8.11108 2 8.98164 2 10.0555C2 11.1294 2.62183 12 3.38889 12Z" fill="#F4900C"/>
<path d="M20.8889 12.5556C20.8889 12.8628 20.6406 13.1111 20.3333 13.1111H18.6667C18.3594 13.1111 18.1111 12.8628 18.1111 12.5556V7.55556C18.1111 7.24889 18.3594 7 18.6667 7H20.3333C20.6406 7 20.8889 7.24889 20.8889 7.55556V12.5556ZM5.88889 12.5556C5.88889 12.8628 5.64 13.1111 5.33334 13.1111H3.66667C3.36 13.1111 3.11111 12.8628 3.11111 12.5556V7.55556C3.11111 7.24889 3.36 7 3.66667 7H5.33334C5.64 7 5.88889 7.24889 5.88889 7.55556V12.5556Z" fill="#FFAC33"/>
<path d="M17.5556 4.77778C17.5556 6.31167 15.0678 7 12 7C8.93168 7 6.44446 6.31167 6.44446 4.77778C6.44446 3.24389 8.93168 2 12 2C15.0678 2 17.5556 3.24389 17.5556 4.77778Z" fill="#FFCC4D"/>
<path d="M15.8889 4.26832C15.8889 5.16332 14.1472 5.88888 12 5.88888C9.85223 5.88888 8.11111 5.16332 8.11111 4.26832C8.11111 3.37332 9.85223 2.64777 12 2.64777C14.1472 2.64777 15.8889 3.37332 15.8889 4.26832Z" fill="#F4900C"/>
<path d="M18.6667 5.05558C18.6667 5.8228 18.045 5.88891 17.2778 5.88891H6.72223C5.95501 5.88891 5.33334 5.8228 5.33334 5.05558C5.33334 4.28835 5.95501 3.66669 6.72223 3.66669H17.2778C18.045 3.66669 18.6667 4.28835 18.6667 5.05558Z" fill="#226699"/>
<path d="M18.6666 5.33331H5.33331C4.71998 5.33331 4.2222 5.83109 4.2222 6.44442V20.8889H19.7778V6.44442C19.7778 5.83109 19.28 5.33331 18.6666 5.33331Z" fill="#55ACEE"/>
<path d="M21.4444 20.3334V19.7778C21.4444 19.1645 20.9467 18.6667 20.3333 18.6667H14.2617L12.3928 20.5356C12.1756 20.7528 11.8244 20.7528 11.6072 20.5356L9.73834 18.6667H3.66667C3.05334 18.6667 2.55556 19.1645 2.55556 19.7778V20.3334C2.55556 20.9467 2.49778 21.4445 3.11112 21.4445H20.8889C21.5022 21.4445 21.4444 20.9467 21.4444 20.3334Z" fill="#3B88C3"/>
<path d="M15.6111 12.5556C16.9918 12.5556 18.1111 11.4363 18.1111 10.0556C18.1111 8.67489 16.9918 7.5556 15.6111 7.5556C14.2304 7.5556 13.1111 8.67489 13.1111 10.0556C13.1111 11.4363 14.2304 12.5556 15.6111 12.5556Z" fill="white"/>
<path d="M15.6111 11.5672C16.446 11.5672 17.1228 10.8904 17.1228 10.0556C17.1228 9.22068 16.446 8.54388 15.6111 8.54388C14.7762 8.54388 14.0994 9.22068 14.0994 10.0556C14.0994 10.8904 14.7762 11.5672 15.6111 11.5672Z" fill="#DD2E44"/>
<path d="M8.38889 12.5556C9.7696 12.5556 10.8889 11.4363 10.8889 10.0556C10.8889 8.67489 9.7696 7.5556 8.38889 7.5556C7.00817 7.5556 5.88889 8.67489 5.88889 10.0556C5.88889 11.4363 7.00817 12.5556 8.38889 12.5556Z" fill="white"/>
<path d="M18.1111 16.1667C18.1111 16.9339 17.4894 17.5555 16.7222 17.5555H7.27777C6.51055 17.5555 5.88889 16.9339 5.88889 16.1667C5.88889 15.3994 6.51055 14.7778 7.27777 14.7778H16.7222C17.4894 14.7778 18.1111 15.3994 18.1111 16.1667Z" fill="#F5F8FA"/>
<path d="M11.4444 14.7778H12.5556V17.5555H11.4444V14.7778ZM8.66666 14.7778H9.77777V17.5555H8.66666V14.7778ZM14.2222 14.7778H15.3333V17.5555H14.2222V14.7778ZM5.88889 16.1667C5.88889 16.8389 6.36611 17.3989 7 17.5278V14.8055C6.36611 14.9344 5.88889 15.4944 5.88889 16.1667ZM17 14.8055V17.5272C17.6339 17.3983 18.1111 16.8383 18.1111 16.1661C18.1111 15.4939 17.6339 14.9344 17 14.8055Z" fill="#CCD6DD"/>
<path d="M8.38889 11.5672C9.22376 11.5672 9.90056 10.8904 9.90056 10.0556C9.90056 9.22068 9.22376 8.54388 8.38889 8.54388C7.55402 8.54388 6.87723 9.22068 6.87723 10.0556C6.87723 10.8904 7.55402 11.5672 8.38889 11.5672Z" fill="#DD2E44"/>
</svg>
