<svg width="24" height="24" viewBox="0 0 24 24" fill="none" xmlns="http://www.w3.org/2000/svg">
<path d="M21 19C21 20.1045 20.1045 21 19 21H5C3.8955 21 3 20.1045 3 19V5C3 3.8955 3.8955 3 5 3H19C20.1045 3 21 3.8955 21 5V19Z" fill="#3B88C3"/>
<path d="M18.1 8L14.5 5V7H10.5C7.7385 7 5.5 9.2385 5.5 12C5.5 12.707 5.6485 13.379 5.9135 13.989L7.5635 12.614C7.522 12.4155 7.5 12.2105 7.5 12C7.5 10.343 8.843 9 10.5 9H14.5V11L18.1 8ZM18.087 10.0115L16.4365 11.3865C16.478 11.5845 16.5 11.7895 16.5 12C16.5 13.6565 15.1565 15 13.5 15H9.5V13L5.9 16L9.5 19V17H13.5C16.261 17 18.5 14.761 18.5 12C18.5 11.293 18.3515 10.621 18.087 10.0115Z" fill="white"/>
</svg>
