<svg width="24" height="24" viewBox="0 0 24 24" fill="none" xmlns="http://www.w3.org/2000/svg">
<path d="M4.01234 11.7657L7.66677 8.56805L14.9756 9.02486L15.4324 16.3337L12.2348 19.9881C12.2348 19.9881 12.2353 17.2478 9.49398 14.5065C6.75271 11.7652 4.01234 11.7657 4.01234 11.7657Z" fill="#A0041E"/>
<path d="M4.00001 19.9881C4.00001 19.9881 3.98356 16.3433 5.36357 14.9633C6.74357 13.5833 10.4076 13.6783 10.4076 13.6783C10.4076 13.6783 10.4071 17.2473 9.03672 18.6177C7.66631 19.9881 4.00001 19.9881 4.00001 19.9881Z" fill="#FFAC33"/>
<path d="M7.66631 18.1609C8.67545 18.1609 9.49353 17.3428 9.49353 16.3337C9.49353 15.3245 8.67545 14.5065 7.66631 14.5065C6.65717 14.5065 5.8391 15.3245 5.8391 16.3337C5.8391 17.3428 6.65717 18.1609 7.66631 18.1609Z" fill="#FFCC4D"/>
<path d="M20 4C20 4 15.432 4 9.95033 8.56803C7.20951 10.852 7.20951 14.9633 8.12311 15.8769C9.03672 16.7905 13.1479 16.7905 15.432 14.0497C20 8.56803 20 4 20 4Z" fill="#55ACEE"/>
<path d="M15.8888 6.284C15.1474 6.284 14.5124 6.72755 14.2255 7.36205C14.4549 7.25836 14.7075 7.1976 14.9752 7.1976C15.9842 7.1976 16.8024 8.01574 16.8024 9.02482C16.8024 9.2925 16.7416 9.54512 16.6384 9.77397C17.2729 9.48756 17.716 8.8526 17.716 8.11121C17.716 7.10213 16.8978 6.284 15.8888 6.284Z" fill="black"/>
<path d="M7.20996 16.7905C7.20996 16.7905 7.20996 14.9633 7.66677 14.5065C8.12357 14.0497 13.6057 9.48209 14.062 9.93844C14.5184 10.3948 9.95033 15.8769 9.49352 16.3337C9.03672 16.7905 7.20996 16.7905 7.20996 16.7905Z" fill="#A0041E"/>
</svg>
