<svg width="24" height="24" viewBox="0 0 24 24" fill="none" xmlns="http://www.w3.org/2000/svg">
<path d="M19 12C19 15.8659 15.8659 19 12 19C8.13406 19 5 15.8659 5 12C5 8.13406 8.13406 5 12 5C15.8659 5 19 8.13406 19 12Z" fill="#FFCC4D"/>
<path d="M12 13.4968C10.8466 13.4968 10.0808 13.3623 9.13428 13.1783C8.91767 13.1371 8.49728 13.1783 8.49728 13.8153C8.49728 15.0889 9.96067 16.681 12 16.681C14.0393 16.681 15.5027 15.0889 15.5027 13.8153C15.5027 13.1783 15.0819 13.1367 14.8657 13.1783C13.9192 13.3623 13.1538 13.4968 12 13.4968Z" fill="#664500"/>
<path d="M11.475 6.27598C11.1409 5.3306 10.1046 4.83437 9.15878 5.16765C8.58478 5.36987 8.17839 5.83304 8.02011 6.37476C7.55694 6.05237 6.95028 5.94698 6.37706 6.14921C5.43206 6.48287 4.93506 7.52004 5.26911 8.46543C5.31656 8.59921 5.37956 8.72326 5.45267 8.83798C6.21139 10.231 8.40356 11.2102 9.73083 11.2223C10.7563 10.3795 11.8487 8.24143 11.5656 6.68121C11.5508 6.54587 11.5217 6.40976 11.475 6.27598ZM12.525 6.27598C12.8591 5.3306 13.8958 4.83437 14.8412 5.16765C15.4152 5.36987 15.8216 5.83304 15.9803 6.37476C16.4434 6.05237 17.0501 5.94698 17.6233 6.14921C18.5683 6.48287 19.0649 7.52004 18.7317 8.46543C18.6838 8.59921 18.6212 8.72326 18.5477 8.83798C17.789 10.231 15.5968 11.2102 14.2692 11.2223C13.2437 10.3795 12.1517 8.24143 12.4348 6.68121C12.4492 6.54587 12.4783 6.40976 12.525 6.27598Z" fill="#DD2E44"/>
</svg>
