<svg width="24" height="24" viewBox="0 0 24 24" fill="none" xmlns="http://www.w3.org/2000/svg">
<path d="M20.5241 20V17.6389C20.5241 16.0739 19.2557 14.8055 17.6908 14.8055H10.1352C8.57077 14.8055 7.30191 16.0739 7.30191 17.6389V20H20.5241Z" fill="#8E7DFF"/>
<path d="M11.8541 14.8556C11.8541 15.2778 12.9686 15.7967 13.913 15.7967C14.8575 15.7967 15.9714 15.2778 15.9714 14.8561V13.0536H11.8537V14.8556H11.8541Z" fill="#F3D2A2"/>
<path d="M11.8504 13.8484C12.4246 14.4972 13.1367 14.6729 13.9111 14.6729C14.6851 14.6729 15.3967 14.4967 15.9714 13.8484V12.1998H11.8499V13.8484H11.8504Z" fill="#E2C196"/>
<path d="M10.8171 9.10863C10.8171 9.79241 10.4705 10.3468 10.0432 10.3468C9.61581 10.3468 9.2692 9.79241 9.2692 9.10863C9.2692 8.42486 9.61581 7.87 10.0432 7.87C10.4705 7.86952 10.8171 8.42438 10.8171 9.10863ZM18.5564 9.10863C18.5564 9.79241 18.2103 10.3468 17.7824 10.3468C17.3551 10.3468 17.0084 9.79241 17.0084 9.10863C17.0084 8.42486 17.3546 7.87 17.7824 7.87C18.2103 7.86952 18.5564 8.42438 18.5564 9.10863Z" fill="#F3D2A2"/>
<path d="M9.88828 9.59223C9.88828 6.95298 11.6903 4.81287 13.913 4.81287C16.1358 4.81287 17.9373 6.95298 17.9373 9.59223C17.9373 12.2315 16.1358 14.3716 13.913 14.3716C11.6907 14.3711 9.88828 12.2315 9.88828 9.59223Z" fill="#F3D2A2"/>
<path d="M13.913 12.8232C12.6125 12.8232 12.213 12.4902 12.1465 12.4227C12.0256 12.3018 12.0256 12.1058 12.1465 11.985C12.2636 11.8678 12.4515 11.8645 12.5724 11.9741C12.597 11.9916 12.9129 12.2041 13.913 12.2041C14.9519 12.2041 15.2523 11.975 15.2551 11.9727C15.376 11.8523 15.5653 11.8579 15.6862 11.9798C15.8071 12.1007 15.8005 12.3023 15.6796 12.4227C15.613 12.4902 15.2135 12.8232 13.913 12.8232Z" fill="#C1694F"/>
<path d="M13.913 3C16.5801 3 18.2471 5.19489 18.2471 6.83492C18.2471 8.47494 17.9137 9.13133 17.5803 8.47494L16.9135 7.16311C16.9135 7.16311 14.9137 7.16311 14.2469 6.50672C14.2469 6.50672 15.247 8.47494 13.2467 6.50672C13.2467 6.50672 13.5801 7.81903 11.5798 6.179C11.5798 6.179 10.5796 6.83492 10.2462 8.47494C10.1537 8.93017 9.57944 8.47494 9.57944 6.83492C9.57897 5.19489 10.9125 3 13.913 3Z" fill="#77B255"/>
<path d="M12.0241 9.61112C11.7644 9.61112 11.5519 9.39862 11.5519 9.1389V8.66668C11.5519 8.40696 11.7644 8.19446 12.0241 8.19446C12.2839 8.19446 12.4964 8.40696 12.4964 8.66668V9.1389C12.4964 9.39862 12.2839 9.61112 12.0241 9.61112ZM15.8019 9.61112C15.5422 9.61112 15.3297 9.39862 15.3297 9.1389V8.66668C15.3297 8.40696 15.5422 8.19446 15.8019 8.19446C16.0616 8.19446 16.2741 8.40696 16.2741 8.66668V9.1389C16.2741 9.39862 16.0616 9.61112 15.8019 9.61112Z" fill="#662113"/>
<path d="M14.2672 10.9097H13.5588C13.3638 10.9097 13.2047 10.7506 13.2047 10.5556C13.2047 10.3606 13.3638 10.2014 13.5588 10.2014H14.2672C14.4622 10.2014 14.6213 10.3606 14.6213 10.5556C14.6213 10.7506 14.4622 10.9097 14.2672 10.9097Z" fill="#C1694F"/>
<path d="M19.5797 19.5278C19.5797 19.7889 19.3686 20 19.1075 20H14.3852C14.1241 20 13.913 19.7889 13.913 19.5278C13.913 19.2666 14.1241 19.0555 14.3852 19.0555H19.1075C19.3686 19.0555 19.5797 19.2666 19.5797 19.5278Z" fill="#E1E8ED"/>
<path d="M13.5541 13.3889H5.77145C5.05178 13.3889 4.12906 13.753 4.60128 15.0563L6.05195 19.0584C6.05242 19.0584 6.23942 20 7.30192 20H16.7464L14.8575 14.6922C14.6506 14.068 14.2743 13.3889 13.5541 13.3889Z" fill="#E1E8ED"/>
<path d="M13.0819 13.3889H5.29922C4.57955 13.3889 3.65683 13.753 4.12905 15.0563L5.57972 19.0584C5.58019 19.0584 5.76719 20 6.82969 20H16.2741L14.3852 14.6922C14.1784 14.068 13.8021 13.3889 13.0819 13.3889Z" fill="#99AAB5"/>
<path d="M10.6165 16.8281C10.8639 17.5704 10.6632 18.3062 10.1683 18.471C9.67342 18.6362 9.07181 18.1683 8.82437 17.4259C8.57692 16.6836 8.77762 15.9479 9.27251 15.7831C9.7674 15.6183 10.3695 16.0858 10.6165 16.8281ZM12.9686 14.6875H5.41304C5.21754 14.6875 5.05887 14.5289 5.05887 14.3334C5.05887 14.1379 5.21754 13.9792 5.41304 13.9792H12.9686C13.1641 13.9792 13.3228 14.1379 13.3228 14.3334C13.3228 14.5289 13.1641 14.6875 12.9686 14.6875Z" fill="#E1E8ED"/>
</svg>
