<svg width="24" height="24" viewBox="0 0 24 24" fill="none" xmlns="http://www.w3.org/2000/svg">
<path d="M12.7778 3.13722V3.11111C12.7778 2.49778 12.28 2 11.6667 2C11.0533 2 10.5556 2.49778 10.5556 3.11111V3.13722C5.965 3.34556 5 4.84833 5 5.88889V15.3333C5 19.015 7.985 22 11.6667 22C15.3483 22 18.3333 19.015 18.3333 15.3333V5.88889C18.3333 4.84833 17.3683 3.34556 12.7778 3.13722Z" fill="#99AAB5"/>
<path d="M13.8889 7.1106V3.22171C13.5433 3.18504 13.1733 3.15726 12.7778 3.13782V7.00004C12.7778 7.61338 12.28 8.11115 11.6667 8.11115C11.0533 8.11115 10.5556 7.61338 10.5556 7.00004V3.13782C10.16 3.15671 9.79 3.18504 9.44445 3.22171V7.1106C5.81056 7.49449 5 8.82782 5 9.77782V10.8889C5 9.9306 5.82333 8.58171 9.53834 8.21171C9.80334 8.79338 10.6506 9.22227 11.6667 9.22227C12.6833 9.22227 13.5306 8.79338 13.795 8.21171C17.51 8.58171 18.3333 9.9306 18.3333 10.8889V9.77782C18.3333 8.82782 17.5228 7.49449 13.8889 7.1106Z" fill="#292F33"/>
</svg>
