<svg width="24" height="24" viewBox="0 0 24 24" fill="none" xmlns="http://www.w3.org/2000/svg">
<path d="M20 13.3889C20 14.432 19.1542 15.2778 18.1111 15.2778H4.88889C3.84575 15.2778 3 14.432 3 13.3889V4.88889C3 3.84575 3.84575 3 4.88889 3H18.1111C19.1542 3 20 3.84575 20 4.88889V13.3889Z" fill="#CCD6DD"/>
<path d="M4.88889 4.88892H18.1111V13.3889H4.88889V4.88892Z" fill="#5DADEC"/>
<path d="M9.13889 15.2778H13.8611V18.1111H9.13889V15.2778Z" fill="#CCD6DD"/>
<path d="M9.13889 15.2778H13.8611V16.2222H9.13889V15.2778Z" fill="#9AAAB4"/>
<path d="M20 18.5834C20 17.8009 19.3658 17.1667 18.5833 17.1667H4.41667C3.63419 17.1667 3 17.8009 3 18.5834C3 19.3658 3.63419 20 4.41667 20H18.5833C19.3658 20 20 19.3658 20 18.5834Z" fill="#E1E8ED"/>
<path d="M4.41666 18.1111H5.3611V19.0555H4.41666V18.1111ZM6.30555 18.1111H7.24999V19.0555H6.30555V18.1111ZM8.19443 18.1111H9.13888V19.0555H8.19443V18.1111ZM10.0833 18.1111H11.0278V19.0555H10.0833V18.1111ZM11.9722 18.1111H12.9167V19.0555H11.9722V18.1111ZM13.8611 18.1111H14.8055V19.0555H13.8611V18.1111ZM15.75 18.1111H16.6944V19.0555H15.75V18.1111ZM17.6389 18.1111H18.5833V19.0555H17.6389V18.1111Z" fill="#F5F8FA"/>
</svg>
