<svg width="24" height="24" viewBox="0 0 24 24" fill="none" xmlns="http://www.w3.org/2000/svg">
<path d="M13.333 12L13.0995 12.4045H13.5665L13.333 12ZM12 13.309L12.2335 12.9045H11.7665L12 13.309Z" fill="#EDECEC"/>
<path d="M3 15H21V8H3V15ZM3.147 6.25H20.8535C20.5565 5.5175 19.839 5 19 5H5C4.161 5 3.4435 5.5175 3.147 6.25Z" fill="#EEEEEE"/>
<path d="M13.5665 10.5955H13.0995L13.333 11L13.5665 10.5955ZM10.9005 10.5955H10.4335L10.667 11L10.9005 10.5955ZM12.522 12.4045L13.0445 11.5L12.522 10.5955H11.478L10.9555 11.5L11.478 12.4045H12.522ZM10.667 12L10.4335 12.4045H10.9005L10.667 12ZM12 9.69104L11.7665 10.0955H12.2335L12 9.69104Z" fill="#EDECEC"/>
<path d="M3.147 6.25C3.053 6.482 3 6.7345 3 7V8H21V7C21 6.7345 20.947 6.482 20.853 6.25H3.147Z" fill="#0038B8"/>
<path d="M3.147 16.75H20.8535C20.5565 17.4825 19.839 18 19 18H5C4.161 18 3.4435 17.4825 3.147 16.75Z" fill="#EEEEEE"/>
<path d="M3.147 16.75C3.053 16.518 3 16.2655 3 16V15H21V16C21 16.2655 20.947 16.518 20.853 16.75H3.147ZM11.189 12.9045L12 14.309L12.811 12.9045H14.4325L13.622 11.5L14.433 10.0955H12.8115L12 8.69104L11.189 10.0955H9.5675L10.378 11.5L9.567 12.9045H11.189ZM12 13.309L11.7665 12.9045H12.2335L12 13.309ZM13.5665 10.5955L13.333 11L13.0995 10.596H13.5665V10.5955ZM13.333 12L13.5665 12.404H13.0995L13.333 12ZM12 9.69104L12.2335 10.0955H11.7665L12 9.69104ZM11.478 10.5955H12.5225L13.0445 11.5L12.5225 12.4045H11.478L10.9555 11.5L11.478 10.5955ZM10.9005 10.5955L10.667 11L10.4335 10.596H10.9005V10.5955ZM10.667 12L10.9005 12.404H10.4335L10.667 12Z" fill="#0038B8"/>
</svg>
