<svg width="24" height="24" viewBox="0 0 24 24" fill="none" xmlns="http://www.w3.org/2000/svg">
<path d="M21 12C21 16.9705 16.9705 21 12 21C7.0295 21 3 16.9705 3 12C3 7.0295 7.0295 3 12 3C16.9705 3 21 7.0295 21 12Z" fill="#FFCC4D"/>
<path fill-rule="evenodd" clip-rule="evenodd" d="M3.61999 8.50897C3.73999 8.62847 4.33899 8.98747 4.45849 9.34647C4.57849 9.70497 4.81849 11.7385 5.53749 12.337C6.27899 12.953 9.07599 12.724 9.61149 12.457C10.81 11.8595 10.957 10.1915 11.169 9.34647C11.2885 8.86797 12.0075 8.86797 12.0075 8.86797C12.0075 8.86797 12.7265 8.86797 12.8465 9.34597C13.0585 10.1915 13.2065 11.8595 14.404 12.4565C14.94 12.724 17.737 12.9535 18.4795 12.3375C19.1975 11.739 19.437 9.70547 19.557 9.34647C19.676 8.98797 20.276 8.62897 20.3955 8.50947C20.516 8.38997 20.516 7.91147 20.3955 7.79147C20.156 7.55247 17.3285 7.33947 14.284 7.67197C13.6765 7.73847 13.4455 7.91097 12.007 7.91097C10.5695 7.91097 10.3375 7.73797 9.73049 7.67197C6.68799 7.33897 3.85999 7.55197 3.61999 7.79097C3.50049 7.91047 3.50049 8.38947 3.61999 8.50897Z" fill="#292F33"/>
<path d="M16.6675 14.8145C16.5785 14.734 16.4455 14.729 16.35 14.8C16.3305 14.8145 14.389 16.25 12 16.25C9.61699 16.25 7.66899 14.8145 7.64999 14.8C7.55449 14.729 7.42149 14.735 7.33249 14.8145C7.24399 14.8945 7.22399 15.0265 7.28549 15.1285C7.34999 15.236 8.89399 17.75 12 17.75C15.106 17.75 16.6505 15.236 16.7145 15.1285C16.776 15.026 16.7565 14.8945 16.6675 14.8145Z" fill="#664500"/>
</svg>
