<svg width="24" height="24" viewBox="0 0 24 24" fill="none" xmlns="http://www.w3.org/2000/svg">
<path d="M20.7225 6C20.376 5.4045 19.7385 5 19 5H12V6H20.7225ZM3 15H21V16H3V15ZM12 11H21V12H12V11ZM12 9H21V10H12V9ZM3 13H21V14H3V13ZM5 18H19C19.7385 18 20.376 17.5955 20.7225 17H3.2775C3.624 17.5955 4.2615 18 5 18ZM12 7H21V8H12V7Z" fill="#B22334"/>
<path d="M3.034 16.3395C3.0425 16.386 3.052 16.4325 3.0635 16.478C3.0765 16.5285 3.0925 16.577 3.1095 16.626C3.154 16.7555 3.208 16.8805 3.276 16.9975L3.2775 17H20.7225L20.7235 16.998C20.791 16.8815 20.845 16.7565 20.8895 16.6275C20.9065 16.578 20.923 16.5285 20.936 16.477C20.9475 16.432 20.957 16.386 20.9655 16.3395C20.986 16.2295 21 16.1165 21 16H3C3 16.1165 3.014 16.229 3.034 16.3395ZM3 14H21V15H3V14ZM3 12V13H21V12H12H3ZM12 10H21V11H12V10ZM12 8H21V9H12V8ZM3 7C3 6.8835 3.015 6.7715 3.034 6.6605C3.014 6.771 3 6.8835 3 7ZM3.2775 6L3.276 6.0025L3.2775 6ZM3.064 6.522C3.0765 6.471 3.094 6.4225 3.11 6.3735C3.093 6.4225 3.077 6.4715 3.064 6.522ZM12 7H21C21 6.8835 20.986 6.7705 20.9655 6.66C20.957 6.614 20.948 6.568 20.936 6.523C20.9225 6.4715 20.9065 6.4215 20.889 6.372C20.8445 6.243 20.7905 6.1185 20.723 6.002C20.7235 6.0015 20.723 6.0005 20.7225 6H12V7Z" fill="#EEEEEE"/>
<path d="M12 5H5C3.8955 5 3 5.8955 3 7V12H12V5Z" fill="#3C3B6E"/>
<path d="M4.0005 6.363L4.3095 6.5875L4.1915 6.95L4.5 6.726L4.809 6.95L4.691 6.5875L5 6.363H4.618L4.5 6L4.3825 6.363H4.0005ZM5.0005 7.363L5.3095 7.5875L5.1915 7.95L5.5 7.726L5.809 7.95L5.691 7.5875L6 7.363H5.618L5.5 7L5.3825 7.363H5.0005ZM7.0005 7.363L7.3095 7.5875L7.1915 7.95L7.5 7.726L7.809 7.95L7.691 7.5875L8 7.363H7.618L7.5 7L7.3825 7.363H7.0005ZM9.0005 7.363L9.3095 7.5875L9.1915 7.95L9.5 7.726L9.809 7.95L9.691 7.5875L10 7.363H9.618L9.5 7L9.3825 7.363H9.0005ZM5.0005 9.363L5.3095 9.5875L5.1915 9.95L5.5 9.726L5.809 9.95L5.691 9.5875L6 9.363H5.618L5.5 9L5.3825 9.363H5.0005ZM7.0005 9.363L7.3095 9.5875L7.1915 9.95L7.5 9.726L7.809 9.95L7.691 9.5875L8 9.363H7.618L7.5 9L7.3825 9.363H7.0005ZM9.0005 9.363L9.3095 9.5875L9.1915 9.95L9.5 9.726L9.809 9.95L9.691 9.5875L10 9.363H9.618L9.5 9L9.3825 9.363H9.0005ZM6.0005 6.363L6.3095 6.5875L6.1915 6.95L6.5 6.726L6.809 6.95L6.691 6.5875L7 6.363H6.618L6.5 6L6.3825 6.363H6.0005ZM8.0005 6.363L8.3095 6.5875L8.1915 6.95L8.5 6.726L8.809 6.95L8.691 6.5875L9 6.363H8.618L8.5 6L8.3825 6.363H8.0005ZM10.0005 6.363L10.3095 6.5875L10.1915 6.95L10.5 6.726L10.809 6.95L10.691 6.5875L11 6.363H10.618L10.5 6L10.3825 6.363H10.0005ZM4.0005 8.363L4.3095 8.5875L4.1915 8.95L4.5 8.726L4.809 8.95L4.691 8.5875L5 8.363H4.618L4.5 8L4.3825 8.363H4.0005ZM6.1915 8.95L6.5 8.726L6.809 8.95L6.691 8.5875L7 8.363H6.618L6.5 8L6.3825 8.363H6.0005L6.3095 8.5875L6.1915 8.95ZM8.0005 8.363L8.3095 8.5875L8.1915 8.95L8.5 8.726L8.809 8.95L8.691 8.5875L9 8.363H8.618L8.5 8L8.3825 8.363H8.0005ZM10.0005 8.363L10.3095 8.5875L10.1915 8.95L10.5 8.726L10.809 8.95L10.691 8.5875L11 8.363H10.618L10.5 8L10.3825 8.363H10.0005ZM4.0005 10.363L4.3095 10.5875L4.1915 10.95L4.5 10.726L4.809 10.95L4.691 10.5875L5 10.363H4.618L4.5 10L4.3825 10.363H4.0005ZM6.1915 10.95L6.5 10.726L6.809 10.95L6.691 10.5875L7 10.363H6.618L6.5 10L6.3825 10.363H6.0005L6.3095 10.5875L6.1915 10.95ZM8.0005 10.363L8.3095 10.5875L8.1915 10.95L8.5 10.726L8.809 10.95L8.691 10.5875L9 10.363H8.618L8.5 10L8.3825 10.363H8.0005ZM10.0005 10.363L10.3095 10.5875L10.1915 10.95L10.5 10.726L10.809 10.95L10.691 10.5875L11 10.363H10.618L10.5 10L10.3825 10.363H10.0005Z" fill="white"/>
</svg>
